<svg xmlns="http://www.w3.org/2000/svg" viewBox="0 0 673.42 133.02"><defs><style>.cls-1{fill:#fff;}.cls-2{fill:#126da5;}.cls-3{fill:#a3aab2;}</style></defs><title>TERA_logo_blanco</title><g id="Layer_2" data-name="Layer 2"><g id="Layer_1-2" data-name="Layer 1"><path class="cls-1" d="M152.76,0c2.91,0,4.37,1.4,4.37,4.18V22.8c0,2.92-1.46,4.37-4.37,4.37H93.1V128.82c0,2.79-1.4,4.18-4.18,4.18H68.21Q64,133,64,128.82V27.17H4.37C1.45,27.17,0,25.72,0,22.8V4.18C0,1.4,1.45,0,4.37,0Z"/><path class="cls-1" d="M439.47,0q21.84,0,31.35,9.88t9.5,29.26V50q0,16.35-6.65,25.84T452,88l32.49,40.28a3,3,0,0,1,.57,2.85c-.26,1.27-1.27,1.9-3,1.9H457.52a7.19,7.19,0,0,1-3.42-.57,6.55,6.55,0,0,1-1.9-1.9L422.18,91H360.81v37.81c0,2.79-1.4,4.18-4.18,4.18H336.11c-2.92,0-4.37-1.39-4.37-4.18V5.7q0-5.7,5.7-5.7ZM360.81,67.83h72.77q9.69,0,13.68-4.18t4-12.73v-8q0-8.55-4-12.73T433.58,26h-70.3c-1.65,0-2.47.76-2.47,2.28Z"/><path class="cls-1" d="M588.05,0a23.43,23.43,0,0,1,12.16,2.94q4.93,3,9.69,11.5l62.89,114.19a3.94,3.94,0,0,1,.47,3.14c-.31.82-1.23,1.23-2.75,1.23H646.38c-2.16,0-3.61-.82-4.37-2.47L628.52,106h-89.3l-13.11,24.51a4.59,4.59,0,0,1-4.37,2.47H497c-1.65,0-2.63-.41-3-1.23a4,4,0,0,1,.48-3.14L556.89,14.44q4.74-8.55,9.31-11.5A19.18,19.18,0,0,1,576.84,0ZM551.19,84h65.36L586.34,28.31A2.35,2.35,0,0,0,584.25,27h-1.14A2.32,2.32,0,0,0,581,28.31Z"/><path class="cls-2" d="M309.89,128.83V110.78c0-2.78-1.46-4.18-4.37-4.18l-80.79,0L185.44,133l120.24,0C308.48,133,309.89,131.56,309.89,128.83Z"/><path class="cls-3" d="M224.73,106.58l-16.68,0L168.72,133l75.77.05h.15l-59.2,0Z"/><path class="cls-2" d="M309.89,22.27v-18c0-2.78-1.46-4.18-4.37-4.18L224.73,0,185.44,26.4l120.24,0C308.48,26.39,309.89,25,309.89,22.27Z"/><path class="cls-3" d="M224.73,0,208.05,0,168.72,26.41l75.77.05h.15l-59.2,0Z"/><path class="cls-2" d="M309.89,75.52v-18q0-4.19-4.37-4.18l-80.79,0L185.44,79.65l120.24,0C308.48,79.64,309.89,78.25,309.89,75.52Z"/><path class="cls-3" d="M224.73,53.27l-16.68,0L168.72,79.66l75.77,0h.15l-59.2,0Z"/></g></g></svg>